PathFileType	4	(X/Y/Z)	SUBJ51_3_walk_RCNL2025.trc
DataRate	CameraRate	NumFrames	NumMarkers	Units	OrigDataRate	OrigDataStartFrame	OrigNumFrames
100	100	14	25	mm	100	207	275
Frame#	Time	R_Shoulder			L_Shoulder			C7			J_Notch			R_Elbow			L_Elbow			R_Wrist			L_Wrist			R_Asis			L_Asis			Sacral			Thoracic			Sternum			R_Thigh_Lateral			R_Knee_Lateral			R_Shank_Lateral			R_Ankle_Lateral			R_Heel			R_Toe			L_Thigh_Lateral			L_Knee_Lateral			L_Shank_Lateral			L_Ankle_Lateral			L_Heel			L_Toe		
		X1	Y1	Z1	X2	Y2	Z2	X3	Y3	Z3	X4	Y4	Z4	X5	Y5	Z5	X6	Y6	Z6	X7	Y7	Z7	X8	Y8	Z8	X9	Y9	Z9	X10	Y10	Z10	X11	Y11	Z11	X12	Y12	Z12	X13	Y13	Z13	X14	Y14	Z14	X15	Y15	Z15	X16	Y16	Z16	X17	Y17	Z17	X18	Y18	Z18	X19	Y19	Z19	X20	Y20	Z20	X21	Y21	Z21	X22	Y22	Z22	X23	Y23	Z23	X24	Y24	Z24	X25	Y25	Z25
207	2.06000000	440.364014	1438.377563	412.047241	488.727112	1466.801880	-42.582874	389.433563	1571.924683	166.348022	528.614990	1448.105591	180.243103	277.910614	1161.320190	467.527740	513.713013	1183.004272	-185.851242	273.925636	887.105652	454.238983	728.745789	1042.212280	-157.332397	532.404907	1013.281433	300.085724	506.599304	984.711243	61.281513	303.041748	1033.187378	193.726776	281.941101	1354.544434	161.994843	576.215576	1220.952271	171.288498	605.003662	639.021545	374.962158	633.086060	522.034485	321.988373	667.771912	303.067200	375.402893	710.206360	76.511864	254.282593	663.495178	66.046158	190.894470	870.823853	71.788658	228.827988	344.553223	614.511536	-39.596390	292.569946	506.716675	9.423366	164.623749	362.502563	-31.705374	-4.866853	154.199753	72.882393	-41.835957	190.936737	126.299019	100.421570	43.096760	112.511078
208	2.07000000	456.839996	1438.207275	413.413910	504.005463	1468.155273	-41.125015	404.978455	1572.978638	168.633362	544.318115	1449.403320	181.733673	296.133575	1160.425171	468.914642	524.803528	1183.034912	-183.669861	292.645554	886.083252	455.518539	737.489960	1038.377869	-156.878380	548.911621	1015.706909	300.411377	523.045837	985.169312	62.423016	319.382629	1033.791626	194.006042	297.855530	1355.263672	163.233810	592.716675	1222.494873	172.173126	622.844299	641.493408	374.709717	650.350281	523.998718	321.887054	682.951355	304.827576	375.916351	713.673462	76.373528	254.817841	665.642883	67.519661	191.990646	874.044556	65.540131	227.923248	365.042969	613.662781	-40.906567	315.217743	505.866516	7.811497	182.729202	366.637054	-33.386940	8.179535	162.811081	70.849731	-25.334972	201.779785	125.110130	102.899849	43.139080	112.528046
209	2.08000000	473.394714	1438.406982	414.653198	519.248962	1469.853760	-39.733818	420.487061	1574.264160	170.780167	559.946411	1450.890869	183.092133	314.739532	1159.835327	470.381958	535.610291	1183.262207	-181.293777	312.092545	885.383972	456.973541	745.406738	1034.076691	-156.350838	565.018250	1018.367676	300.788757	539.366455	985.973938	63.732384	335.499939	1034.608032	194.305573	313.649231	1356.238770	164.358582	608.963074	1224.199951	172.955841	640.010193	643.879883	374.563843	666.659119	525.807068	321.696411	697.057007	306.321228	376.221252	716.542480	76.481308	255.170395	667.424072	68.890404	192.923767	876.512329	60.582611	227.350723	386.683014	612.838257	-42.381241	339.277069	504.964111	5.933098	202.441528	371.035767	-35.201298	23.286757	171.726578	68.885223	-6.241498	212.957077	124.014198	106.226753	43.806404	112.596680
210	2.09000000	489.990570	1438.949585	415.772400	534.406494	1471.816040	-38.417572	435.911285	1575.696045	172.752930	575.474487	1452.470215	184.305069	333.629456	1159.534790	471.934296	546.156982	1183.644043	-178.775818	332.299011	885.012787	458.616501	752.512329	1029.344940	-155.738327	580.738281	1021.146118	301.251068	555.533142	987.061523	65.162582	351.364563	1035.562988	194.639084	329.283569	1357.420654	165.401718	624.891296	1225.956665	173.616074	656.175964	645.946533	374.455170	681.744385	527.293396	321.389648	709.569458	307.370911	376.194824	718.923279	76.732536	255.199997	668.876465	70.077477	193.571701	878.394104	56.829838	226.811279	409.333923	612.046448	-43.968094	364.569153	504.026154	3.832103	223.750900	375.504242	-37.147785	40.425556	180.912827	66.952904	15.245134	224.330063	122.895981	110.740280	45.378437	112.596268
211	2.10000000	506.593658	1439.785400	416.781982	549.417908	1473.941040	-37.183987	451.211487	1577.214233	174.534225	590.876953	1454.071533	185.365845	352.691925	1159.489136	473.579010	556.463379	1184.120117	-176.176956	353.287994	884.963989	460.467743	758.834564	1024.219757	-155.032394	596.116455	1023.939148	301.828064	571.522644	988.367310	66.651009	366.966309	1036.608398	195.023300	344.729034	1358.772339	166.411575	640.476685	1227.681396	174.145187	671.008728	647.473511	374.345184	695.444580	528.368286	320.957947	720.269104	307.933228	375.786133	720.890747	77.050941	254.872498	670.042175	71.051041	193.886169	879.837830	54.104294	226.165604	432.752533	611.346680	-45.589218	390.875031	503.121490	1.583354	246.624573	379.844177	-39.216541	59.477104	190.336212	65.051781	38.789577	235.747025	121.693634	116.873016	48.089664	112.363617
212	2.11000000	523.174072	1440.853638	417.690826	564.220459	1476.125122	-36.045326	466.362000	1578.792969	176.124756	606.129089	1455.664551	186.273193	371.822601	1159.655518	475.323669	566.545410	1184.623901	-173.558029	375.053452	885.224854	462.538895	764.409943	1018.743683	-154.230621	611.213562	1026.655396	302.541626	587.320984	989.839844	68.125252	382.313202	1037.730713	195.477219	359.967377	1360.270630	167.441071	655.730896	1229.333740	174.550385	684.383789	648.361023	374.197540	707.734558	529.017822	320.404572	729.161499	308.088074	375.014923	722.493591	77.386436	254.236801	670.973206	71.821571	193.877274	880.964783	52.196320	225.429642	456.646606	610.845215	-47.161545	417.971344	502.367493	-0.733677	271.019562	383.894531	-41.390537	80.267891	199.935684	63.231403	63.979351	247.018555	120.447205	125.145386	52.052002	111.717270
213	2.12000000	539.703735	1442.097656	418.504639	578.756897	1478.278564	-35.019718	481.352020	1580.437622	177.539352	621.208984	1457.258301	187.031754	390.939972	1159.994873	477.174347	576.416138	1185.097412	-170.972458	397.544952	885.776611	464.814407	769.279907	1012.969086	-153.338760	626.091187	1029.211670	303.402557	602.925781	991.446716	69.514458	397.424133	1038.951538	196.016769	374.991852	1361.904419	168.535583	670.690247	1230.920898	174.852341	696.445679	648.663818	373.971039	718.705505	529.286926	319.744781	736.332336	307.963409	373.972443	723.774597	77.706139	253.386246	671.720154	72.420105	193.600006	881.866333	50.905582	224.676788	480.739929	610.672119	-48.618114	445.652252	501.911804	-3.050358	296.854797	387.567596	-43.641232	102.607292	209.592178	61.588226	90.373291	257.905853	119.306000	136.120880	57.198429	110.489532
214	2.13000000	556.153748	1443.477539	419.227081	592.982422	1480.339844	-34.128269	496.183075	1582.172241	178.801788	636.100525	1458.890503	187.652679	409.995056	1160.481079	479.133850	586.085754	1185.501465	-168.459351	420.672241	886.597473	467.249359	773.484039	1006.958801	-152.368973	640.799805	1031.533691	304.409332	618.342529	993.175171	70.762009	412.321045	1040.318237	196.647446	389.806274	1363.670410	169.724701	685.401611	1232.490845	175.076675	707.493286	648.545410	373.640106	728.517029	529.257019	319.005676	741.920105	307.673859	372.798340	724.780090	77.989944	252.425659	672.321472	72.882004	193.140991	882.603516	50.059841	223.961395	504.828735	610.950439	-49.920479	473.739899	501.906586	-5.310112	323.980103	390.862823	-45.914772	126.304947	219.110352	60.243710	117.543587	268.134247	118.477333	150.323395	63.283134	108.556908
215	2.14000000	572.492432	1444.976318	419.862488	606.869873	1482.283203	-33.390087	510.864502	1584.026123	179.940262	650.796204	1460.610229	188.153061	428.975464	1161.102173	481.199554	595.561340	1185.823853	-166.037094	444.322464	887.666748	469.781708	777.054932	1000.787872	-151.337044	655.373108	1033.563477	305.549408	633.583008	995.033875	71.831627	427.024750	1041.886841	197.358765	404.422699	1365.567383	171.020569	699.912598	1234.115112	175.244812	717.828369	648.206604	373.215759	737.351074	529.024963	318.227386	746.153870	307.314789	371.640533	725.561646	78.231308	251.453720	672.805359	73.241928	192.600250	883.210144	49.519394	223.316254	528.814087	611.770569	-51.059361	502.086212	502.483765	-7.464816	352.167206	393.860657	-48.116310	151.184021	228.228058	59.309292	145.131821	277.422791	118.146095	168.137833	69.931656	105.863708
216	2.15000000	588.686646	1446.600830	420.417511	620.412292	1484.117676	-32.817333	525.406799	1586.021118	180.981644	665.298279	1462.461182	188.553253	447.901367	1161.859253	483.360565	604.847534	1186.080444	-163.701508	468.379974	888.970032	472.350677	780.018219	994.545837	-150.261101	669.826416	1035.271729	306.801666	648.666382	997.053101	72.708092	441.554413	1043.702637	198.121185	418.859192	1367.591919	172.419510	714.265625	1235.866821	175.369308	727.667603	647.825378	372.746002	745.379578	528.684021	317.466644	749.344238	306.966553	370.625916	726.174194	78.437424	250.556320	673.194702	73.531715	192.071457	883.701538	49.177010	222.771378	552.695923	613.181824	-52.049007	530.565796	503.736206	-9.472484	381.122223	396.700867	-50.110882	177.106247	236.649261	58.850731	172.903976	285.515228	118.412460	189.726425	76.707542	102.441589
217	2.16000000	604.705811	1448.375977	420.900574	633.620850	1485.877441	-32.412083	539.816833	1588.166016	181.945129	679.617798	1464.471436	188.872238	466.813324	1162.764160	485.596649	613.947632	1186.311035	-161.430542	492.743805	890.505005	474.914093	782.395660	988.333588	-149.159599	684.157227	1036.671631	308.136963	663.614746	999.272827	73.399986	455.929169	1045.784668	198.885330	433.138000	1369.733521	173.903412	728.493225	1237.801514	175.455841	737.116028	647.520630	372.300568	752.742065	528.308716	316.795197	751.827209	306.678986	369.846527	726.666321	78.622734	249.799774	673.507874	73.777176	191.627594	884.085693	48.957523	222.349472	576.534119	615.194824	-52.921253	559.062561	505.704681	-11.295158	410.518188	399.545288	-51.749508	203.991394	244.081406	58.867428	200.773941	292.201660	119.270096	214.996521	83.172684	98.421509
218	2.17000000	620.526123	1450.336426	421.320953	646.518433	1487.608154	-32.166138	554.098022	1590.454834	182.837646	693.771667	1466.649292	189.123795	485.756714	1163.834839	487.881195	622.863953	1186.568115	-159.192383	517.337845	892.283630	477.455841	784.207703	982.256622	-148.046280	698.348083	1037.826416	309.516876	678.441467	1001.723877	73.944183	470.169525	1048.119385	199.586792	447.283356	1371.973633	175.443069	742.615540	1239.945923	175.508575	746.180359	647.342468	371.952240	759.529663	527.946045	316.287628	753.915527	306.458282	369.349152	727.071350	78.796959	249.219955	673.758850	73.996819	191.313705	884.372070	48.812935	222.055939	600.400085	617.785156	-53.718403	587.457947	508.370972	-12.898391	440.043182	402.536285	-52.912788	231.808624	250.264481	59.293602	228.784775	297.329102	120.618523	243.634933	88.933487	94.020866
219	2.18000000	636.133667	1452.515259	421.688690	659.132507	1489.354614	-32.062775	568.253296	1592.867920	183.655457	707.778870	1468.983765	189.315887	504.769928	1165.089966	490.185303	631.598877	1186.905518	-156.954300	542.112091	894.329742	479.981827	785.476471	976.416931	-146.925446	712.371521	1038.845947	310.893402	693.144470	1004.412415	74.402328	484.296967	1050.665283	200.158142	461.318085	1374.284546	177.003998	756.642456	1242.297363	175.535339	754.812256	647.286560	371.759644	765.784729	527.615234	316.003662	755.873413	306.272583	369.129639	727.405823	78.959999	248.821533	673.959106	74.202812	191.145691	884.574280	48.713230	221.881973	624.340088	620.895447	-54.482716	615.632935	511.661407	-14.255976	469.445343	405.764343	-53.553253	260.545258	254.990799	60.015327	257.057037	300.805664	122.291985	275.187653	93.672112	89.500671
220	2.19000000	651.525696	1454.932617	422.014679	671.491394	1491.150513	-32.078644	582.288147	1595.373779	184.389893	721.657776	1471.447388	189.453369	523.877258	1166.542114	492.481659	640.156250	1187.368286	-154.690567	567.036865	896.672974	482.508942	786.231445	970.907532	-145.791672	726.199036	1039.872437	312.212036	707.719727	1007.321228	74.842499	498.331024	1053.358521	200.544464	475.260590	1376.630981	178.551514	770.578613	1244.829102	175.549927	762.956543	647.318726	371.754272	771.518311	527.315430	315.975220	757.896423	306.072784	369.143066	727.676208	79.108086	248.591782	674.117737	74.402367	191.116776	884.708557	48.639317	221.810959	648.359436	624.443848	-55.246017	643.480530	515.461243	-15.356232	498.556671	409.245026	-53.712452	290.177277	258.115814	60.894592	285.727692	302.597504	124.093864	309.152832	97.170258	85.110146
